<svg xmlns="http://www.w3.org/2000/svg" width="1100" height="680" viewBox="0 0 1100 680" role="img" aria-labelledby="title description" data-frame="RJ-COND-02-C-01" data-view="plan"><title id="title">別々の斜めから、ロレンスの前へ／平面図</title><desc id="description">ロミオは客席左斜め、ジュリエットは客席右斜めから別々に入り、中央のロレンスの前で初めて向き合う。七名は振り返らない。 位置は検討案。左は客席から見た左、下側は客席。</desc><rect width="1100" height="680" fill="#fffaf0"/><defs><clipPath id="floor"><polygon points="140.0,105.0 960.0,105.0 960.0,545.0 140.0,545.0"/></clipPath><marker id="arrow" viewBox="0 0 10 10" refX="8" refY="5" markerWidth="8" markerHeight="8" orient="auto-start-reverse"><path d="M0 1L9 5L0 9" fill="none" stroke="#75664f" stroke-width="1.5"/></marker></defs><g font-family="Hiragino Kaku Gothic ProN,Yu Gothic,sans-serif"><text x="36.0" y="40.0" font-size="18" fill="#2b2620" text-anchor="start" >平面図 · 配置検討</text><polygon points="140.0,105.0 960.0,105.0 960.0,545.0 140.0,545.0" fill="#ddd2bc" stroke="#75664f" stroke-width="2"/><g clip-path="url(#floor)"><polygon points="746.8,364.6 745.9,375.8 743.2,386.9 738.7,397.8 732.4,408.4 724.5,418.5 715.0,428.2 704.0,437.2 691.6,445.5 677.8,453.0 663.0,459.7 647.1,465.5 630.4,470.3 612.9,474.1 595.0,476.8 576.7,478.4 558.2,479.0 539.7,478.4 521.4,476.8 503.5,474.1 486.0,470.3 469.3,465.5 453.4,459.7 438.6,453.0 424.8,445.5 412.4,437.2 401.4,428.2 391.9,418.5 384.0,408.4 377.7,397.8 373.2,386.9 370.5,375.8 369.6,364.6 370.5,353.4 373.2,342.3 377.7,331.4 384.0,320.8 391.9,310.7 401.4,301.0 412.4,292.0 424.8,283.7 438.6,276.2 453.4,269.5 469.3,263.7 486.0,258.9 503.5,255.1 521.4,252.4 539.7,250.8 558.2,250.2 576.7,250.8 595.0,252.4 612.9,255.1 630.4,258.9 647.1,263.7 663.0,269.5 677.8,276.2 691.6,283.7 704.0,292.0 715.0,301.0 724.5,310.7 732.4,320.8 738.7,331.4 743.2,342.3 745.9,353.4" fill="#fffaf0" opacity=".7"/></g><path d="M140,545 L960,545" stroke="#75664f" stroke-width="4"/><text x="550.0" y="610.2" font-size="23" fill="#2b2620" text-anchor="middle" font-weight="700">客席側</text><text x="60.0" y="588.0" font-size="16" fill="#2b2620" text-anchor="start" >客席から見て左</text><text x="1040.0" y="588.0" font-size="16" fill="#2b2620" text-anchor="end" >客席から見て右</text><text x="550.0" y="49.0" font-size="17" fill="#2b2620" text-anchor="middle" >舞台奥</text><g class="person" data-performer="BENVOLIO" data-character="ensemble" data-state="背中" data-u="0.11" data-v="0.18" data-pose="back"><title>群1（ベンヴォーリオ担当）／背中</title><circle cx="230.2" cy="184.2" r="21" fill="#655b4c" stroke="#fffaf0" stroke-width="3"/><text x="230.2" y="191.2" font-size="19" fill="#fffaf0" text-anchor="middle" font-weight="700">1</text><text x="230.2" y="154.2" font-size="14" fill="#2b2620" text-anchor="middle" >背</text><path class="facing" d="M230.2,157.2l0.0,-12.0" stroke="#655b4c" stroke-width="3" stroke-linecap="round"/></g><g class="person" data-performer="TYBALT" data-character="ensemble" data-state="背中" data-u="0.24" data-v="0.18" data-pose="back"><title>群2（ティボルト担当）／背中</title><circle cx="336.79999999999995" cy="184.2" r="21" fill="#655b4c" stroke="#fffaf0" stroke-width="3"/><text x="336.8" y="191.2" font-size="19" fill="#fffaf0" text-anchor="middle" font-weight="700">2</text><text x="336.8" y="154.2" font-size="14" fill="#2b2620" text-anchor="middle" >背</text><path class="facing" d="M336.79999999999995,157.2l0.0,-12.0" stroke="#655b4c" stroke-width="3" stroke-linecap="round"/></g><g class="person" data-performer="MERCUTIO" data-character="ensemble" data-state="背中" data-u="0.37" data-v="0.18" data-pose="back"><title>群3（マーキューシオ担当）／背中</title><circle cx="443.4" cy="184.2" r="21" fill="#655b4c" stroke="#fffaf0" stroke-width="3"/><text x="443.4" y="191.2" font-size="19" fill="#fffaf0" text-anchor="middle" font-weight="700">3</text><text x="443.4" y="154.2" font-size="14" fill="#2b2620" text-anchor="middle" >背</text><path class="facing" d="M443.4,157.2l0.0,-12.0" stroke="#655b4c" stroke-width="3" stroke-linecap="round"/></g><g class="person" data-performer="NURSE" data-character="ensemble" data-state="背中" data-u="0.5" data-v="0.18" data-pose="back"><title>群4（乳母担当）／背中</title><circle cx="550.0" cy="184.2" r="21" fill="#655b4c" stroke="#fffaf0" stroke-width="3"/><text x="550.0" y="191.2" font-size="19" fill="#fffaf0" text-anchor="middle" font-weight="700">4</text><text x="550.0" y="154.2" font-size="14" fill="#2b2620" text-anchor="middle" >背</text><path class="facing" d="M550.0,157.2l0.0,-12.0" stroke="#655b4c" stroke-width="3" stroke-linecap="round"/></g><g class="person" data-performer="CAPULET" data-character="ensemble" data-state="背中" data-u="0.63" data-v="0.18" data-pose="back"><title>群5（キャピュレット担当）／背中</title><circle cx="656.6" cy="184.2" r="21" fill="#655b4c" stroke="#fffaf0" stroke-width="3"/><text x="656.6" y="191.2" font-size="19" fill="#fffaf0" text-anchor="middle" font-weight="700">5</text><text x="656.6" y="154.2" font-size="14" fill="#2b2620" text-anchor="middle" >背</text><path class="facing" d="M656.6,157.2l0.0,-12.0" stroke="#655b4c" stroke-width="3" stroke-linecap="round"/></g><g class="person" data-performer="MONTAGUE" data-character="ensemble" data-state="背中" data-u="0.76" data-v="0.18" data-pose="back"><title>群6（モンタギュー担当）／背中</title><circle cx="763.2" cy="184.2" r="21" fill="#655b4c" stroke="#fffaf0" stroke-width="3"/><text x="763.2" y="191.2" font-size="19" fill="#fffaf0" text-anchor="middle" font-weight="700">6</text><text x="763.2" y="154.2" font-size="14" fill="#2b2620" text-anchor="middle" >背</text><path class="facing" d="M763.2,157.2l0.0,-12.0" stroke="#655b4c" stroke-width="3" stroke-linecap="round"/></g><g class="person" data-performer="FRIAR_JOHN" data-character="ensemble" data-state="背中" data-u="0.89" data-v="0.18" data-pose="back"><title>群7（ジョン修道士担当）／背中</title><circle cx="869.8" cy="184.2" r="21" fill="#655b4c" stroke="#fffaf0" stroke-width="3"/><text x="869.8" y="191.2" font-size="19" fill="#fffaf0" text-anchor="middle" font-weight="700">7</text><text x="869.8" y="154.2" font-size="14" fill="#2b2620" text-anchor="middle" >背</text><path class="facing" d="M869.8,157.2l0.0,-12.0" stroke="#655b4c" stroke-width="3" stroke-linecap="round"/></g><g class="person" data-performer="FRIAR_LAWRENCE" data-character="FRIAR_LAWRENCE" data-state="" data-u="0.5" data-v="0.48" data-pose="stand"><title>ロレンス修道士</title><circle cx="550.0" cy="316.2" r="21" fill="#556044" stroke="#fffaf0" stroke-width="3"/><text x="550.0" y="323.2" font-size="19" fill="#fffaf0" text-anchor="middle" font-weight="700">Lo</text><path class="facing" d="M550.0,343.2l0.0,12.0" stroke="#556044" stroke-width="3" stroke-linecap="round"/></g><g class="person" data-performer="ROMEO" data-character="ROMEO" data-state="" data-u="0.39" data-v="0.72" data-pose="stand"><title>ロミオ</title><circle cx="459.8" cy="421.8" r="21" fill="#8f3e1e" stroke="#fffaf0" stroke-width="3"/><text x="459.8" y="428.8" font-size="19" fill="#fffaf0" text-anchor="middle" font-weight="700">Ro</text><path class="facing" d="M483.5913272377163,409.0339219700059l10.573923216762799,-5.673812457775167" stroke="#8f3e1e" stroke-width="3" stroke-linecap="round"/></g><g class="person" data-performer="JULIET" data-character="JULIET" data-state="" data-u="0.64" data-v="0.72" data-pose="stand"><title>ジュリエット</title><circle cx="664.8" cy="421.8" r="21" fill="#245963" stroke="#fffaf0" stroke-width="3"/><text x="664.8" y="428.8" font-size="19" fill="#fffaf0" text-anchor="middle" font-weight="700">Ju</text><path class="facing" d="M641.0086727622837,409.03392197000585l-10.573923216762795,-5.673812457775174" stroke="#245963" stroke-width="3" stroke-linecap="round"/></g><text x="36.0" y="643.0" font-size="16" fill="#2b2620" text-anchor="start" >位置・舞台寸法は検討案。破線の矢印＝移動案／短い線＝向き。</text><text x="1064.0" y="643.0" font-size="17" fill="#2b2620" text-anchor="end" >舞台上 10名</text></g></svg>