<svg xmlns="http://www.w3.org/2000/svg" width="1100" height="680" viewBox="0 0 1100 680" role="img" aria-labelledby="title description" data-frame="RJ-COND-05-A-01" data-view="iso"><title id="title">墓所とロレンス側／中央は人の川／斜め図</title><desc id="description">左に墓所、右に別の場所。中央の人々が川となり、二つの場所は互いに干渉できない。 位置は検討案。左は客席から見た左、下側は客席。</desc><rect width="1100" height="680" fill="#fffaf0"/><defs><clipPath id="floor"><polygon points="160.0,240.0 860.0,95.0 1020.0,380.0 320.0,525.0"/></clipPath><marker id="arrow" viewBox="0 0 10 10" refX="8" refY="5" markerWidth="8" markerHeight="8" orient="auto-start-reverse"><path d="M0 1L9 5L0 9" fill="none" stroke="#75664f" stroke-width="1.5"/></marker></defs><g font-family="Hiragino Kaku Gothic ProN,Yu Gothic,sans-serif"><text x="36.0" y="40.0" font-size="18" fill="#2b2620" text-anchor="start" >斜め図 · 配置検討</text><polygon points="160.0,240.0 320.0,525.0 320.0,549.0 160.0,264.0" fill="#c5b79c" stroke="#75664f" stroke-width="2"/><polygon points="320.0,525.0 1020.0,380.0 1020.0,404.0 320.0,549.0" fill="#c5b79c" stroke="#75664f" stroke-width="2"/><polygon points="160.0,240.0 860.0,95.0 1020.0,380.0 320.0,525.0" fill="#ddd2bc" stroke="#75664f" stroke-width="2"/><g clip-path="url(#floor)"><polygon points="439.4,194.8 593.4,163.0 740.6,425.2 586.6,457.1" fill="#ebe2d0" fill-opacity=".6" stroke="#75664f" stroke-width="1.5" stroke-dasharray="6 7"/></g><path d="M320,525 L1020,380" stroke="#75664f" stroke-width="4"/><text x="713.2" y="537.5" font-size="23" fill="#2b2620" text-anchor="middle" font-weight="700">客席側</text><text x="60.0" y="588.0" font-size="16" fill="#2b2620" text-anchor="start" >客席から見て左</text><text x="1040.0" y="588.0" font-size="16" fill="#2b2620" text-anchor="end" >客席から見て右</text><text x="510.0" y="111.5" font-size="17" fill="#2b2620" text-anchor="middle" >舞台奥</text><g class="person" data-performer="BENVOLIO" data-character="ensemble" data-state="川" data-u="0.47" data-v="0.1" data-pose="open"><title>群1（ベンヴォーリオ担当）／川</title><ellipse cx="505.0" cy="203.35000000000002" rx="20" ry="7" fill="#2b2620" opacity=".14"/><path d="M505.0,175.35000000000002L505.0,191.35000000000002 M505.0,191.35000000000002L496.0,201.35000000000002 M505.0,191.35000000000002L514.0,201.35000000000002 M488.0,177.35000000000002L505.0,181.35000000000002L522.0,177.35000000000002" stroke="#655b4c" stroke-width="8" fill="none" stroke-linecap="round"/><circle cx="505.0" cy="156.35000000000002" r="21" fill="#655b4c" stroke="#fffaf0" stroke-width="3"/><text x="505.0" y="163.4" font-size="19" fill="#fffaf0" text-anchor="middle" font-weight="700">1</text><path class="facing" d="M509.8953475670764,209.06983785385484l5.874417080491684,10.463805424625763" stroke="#655b4c" stroke-width="3" stroke-linecap="round"/></g><g class="person" data-performer="FRIAR_LAWRENCE" data-character="FRIAR_LAWRENCE" data-state="" data-u="0.79" data-v="0.36" data-pose="reach"><title>ロレンス修道士</title><ellipse cx="770.6" cy="231.04999999999998" rx="20" ry="7" fill="#2b2620" opacity=".14"/><path d="M770.6,203.04999999999998L770.6,219.04999999999998 M770.6,219.04999999999998L761.6,229.04999999999998 M770.6,219.04999999999998L779.6,229.04999999999998 M753.6,205.04999999999998L770.6,209.04999999999998L787.6,205.04999999999998" stroke="#556044" stroke-width="8" fill="none" stroke-linecap="round"/><circle cx="770.6" cy="184.04999999999998" r="21" fill="#556044" stroke="#fffaf0" stroke-width="3"/><text x="770.6" y="191.0" font-size="19" fill="#fffaf0" text-anchor="middle" font-weight="700">Lo</text><path class="facing" d="M760.8078745986013,230.07836883314687l-11.750550481678482,2.4340425997762654" stroke="#556044" stroke-width="3" stroke-linecap="round"/></g><g class="person" data-performer="TYBALT" data-character="ensemble" data-state="川" data-u="0.53" data-v="0.26" data-pose="open"><title>群2（ティボルト担当）／川</title><ellipse cx="572.6" cy="240.25" rx="20" ry="7" fill="#2b2620" opacity=".14"/><path d="M572.6,212.25L572.6,228.25 M572.6,228.25L563.6,238.25 M572.6,228.25L581.6,238.25 M555.6,214.25L572.6,218.25L589.6,214.25" stroke="#655b4c" stroke-width="8" fill="none" stroke-linecap="round"/><circle cx="572.6" cy="193.25" r="21" fill="#655b4c" stroke="#fffaf0" stroke-width="3"/><text x="572.6" y="200.2" font-size="19" fill="#fffaf0" text-anchor="middle" font-weight="700">2</text><path class="facing" d="M577.4953475670764,245.9698378538548l5.8744170804916385,10.46380542462579" stroke="#655b4c" stroke-width="3" stroke-linecap="round"/></g><g class="person" data-performer="MERCUTIO" data-character="ensemble" data-state="川" data-u="0.47" data-v="0.42000000000000004" data-pose="open"><title>群3（マーキューシオ担当）／川</title><ellipse cx="556.2" cy="294.55000000000007" rx="20" ry="7" fill="#2b2620" opacity=".14"/><path d="M556.2,266.55000000000007L556.2,282.55000000000007 M556.2,282.55000000000007L547.2,292.55000000000007 M556.2,282.55000000000007L565.2,292.55000000000007 M539.2,268.55000000000007L556.2,272.55000000000007L573.2,268.55000000000007" stroke="#655b4c" stroke-width="8" fill="none" stroke-linecap="round"/><circle cx="556.2" cy="247.55000000000007" r="21" fill="#655b4c" stroke="#fffaf0" stroke-width="3"/><text x="556.2" y="254.6" font-size="19" fill="#fffaf0" text-anchor="middle" font-weight="700">3</text><path class="facing" d="M561.0953475670764,300.2698378538549l5.874417080491652,10.463805424625782" stroke="#655b4c" stroke-width="3" stroke-linecap="round"/></g><g class="person" data-performer="FRIAR_JOHN" data-character="FRIAR_JOHN" data-state="手紙" data-u="0.87" data-v="0.64" data-pose="stand"><title>ジョン修道士／手紙</title><ellipse cx="871.4" cy="299.25" rx="20" ry="7" fill="#2b2620" opacity=".14"/><path d="M871.4,271.25L871.4,287.25 M871.4,287.25L862.4,297.25 M871.4,287.25L880.4,297.25 M858.4,283.25L871.4,275.25L884.4,283.25" stroke="#655b4c" stroke-width="8" fill="none" stroke-linecap="round"/><circle cx="871.4" cy="252.25" r="21" fill="#655b4c" stroke="#fffaf0" stroke-width="3"/><text x="871.4" y="259.2" font-size="19" fill="#fffaf0" text-anchor="middle" font-weight="700">Jo</text><path class="facing" d="M876.2953475670764,304.9698378538548l5.874417080491684,10.463805424625763" stroke="#655b4c" stroke-width="3" stroke-linecap="round"/></g><g class="person" data-performer="NURSE" data-character="ensemble" data-state="川" data-u="0.53" data-v="0.58" data-pose="open"><title>群4（乳母担当）／川</title><ellipse cx="623.8" cy="331.44999999999993" rx="20" ry="7" fill="#2b2620" opacity=".14"/><path d="M623.8,303.44999999999993L623.8,319.44999999999993 M623.8,319.44999999999993L614.8,329.44999999999993 M623.8,319.44999999999993L632.8,329.44999999999993 M606.8,305.44999999999993L623.8,309.44999999999993L640.8,305.44999999999993" stroke="#655b4c" stroke-width="8" fill="none" stroke-linecap="round"/><circle cx="623.8" cy="284.44999999999993" r="21" fill="#655b4c" stroke="#fffaf0" stroke-width="3"/><text x="623.8" y="291.4" font-size="19" fill="#fffaf0" text-anchor="middle" font-weight="700">4</text><path class="facing" d="M628.6953475670764,337.16983785385474l5.874417080491671,10.46380542462577" stroke="#655b4c" stroke-width="3" stroke-linecap="round"/></g><g class="person" data-performer="ROMEO" data-character="ROMEO" data-state="" data-u="0.16" data-v="0.53" data-pose="kneel"><title>ロミオ</title><ellipse cx="356.8" cy="370.85" rx="20" ry="7" fill="#2b2620" opacity=".14"/><path d="M356.8,352.85L356.8,358.85 M356.8,358.85L347.8,368.85 M356.8,358.85L365.8,368.85 M343.8,354.85L356.8,346.85L369.8,354.85" stroke="#8f3e1e" stroke-width="8" fill="none" stroke-linecap="round"/><circle cx="356.8" cy="333.85" r="21" fill="#8f3e1e" stroke="#fffaf0" stroke-width="3"/><text x="356.8" y="340.9" font-size="19" fill="#fffaf0" text-anchor="middle" font-weight="700">Ro</text><path class="facing" d="M366.59212540139873,365.82163116685314l11.750550481678486,-2.4340425997762525" stroke="#8f3e1e" stroke-width="3" stroke-linecap="round"/></g><g class="person" data-performer="CAPULET" data-character="ensemble" data-state="川" data-u="0.47" data-v="0.74" data-pose="open"><title>群5（キャピュレット担当）／川</title><ellipse cx="607.4" cy="385.75" rx="20" ry="7" fill="#2b2620" opacity=".14"/><path d="M607.4,357.75L607.4,373.75 M607.4,373.75L598.4,383.75 M607.4,373.75L616.4,383.75 M590.4,359.75L607.4,363.75L624.4,359.75" stroke="#655b4c" stroke-width="8" fill="none" stroke-linecap="round"/><circle cx="607.4" cy="338.75" r="21" fill="#655b4c" stroke="#fffaf0" stroke-width="3"/><text x="607.4" y="345.8" font-size="19" fill="#fffaf0" text-anchor="middle" font-weight="700">5</text><path class="facing" d="M612.2953475670764,391.4698378538548l5.874417080491671,10.46380542462577" stroke="#655b4c" stroke-width="3" stroke-linecap="round"/></g><g class="person" data-performer="MONTAGUE" data-character="ensemble" data-state="川" data-u="0.53" data-v="0.9" data-pose="open"><title>群6（モンタギュー担当）／川</title><ellipse cx="675.0" cy="422.65" rx="20" ry="7" fill="#2b2620" opacity=".14"/><path d="M675.0,394.65L675.0,410.65 M675.0,410.65L666.0,420.65 M675.0,410.65L684.0,420.65 M658.0,396.65L675.0,400.65L692.0,396.65" stroke="#655b4c" stroke-width="8" fill="none" stroke-linecap="round"/><circle cx="675.0" cy="375.65" r="21" fill="#655b4c" stroke="#fffaf0" stroke-width="3"/><text x="675.0" y="382.6" font-size="19" fill="#fffaf0" text-anchor="middle" font-weight="700">6</text><path class="facing" d="M679.8953475670764,428.3698378538548l5.874417080491684,10.463805424625763" stroke="#655b4c" stroke-width="3" stroke-linecap="round"/></g><g class="person" data-performer="JULIET" data-character="JULIET" data-state="仮死" data-u="0.26" data-v="0.77" data-pose="lie"><title>ジュリエット／仮死</title><ellipse cx="465.2" cy="424.75" rx="20" ry="7" fill="#2b2620" opacity=".14"/><path d="M470.2,421.75L500.2,427.75 M487.2,424.75L490.2,411.75 M500.2,427.75L515.2,421.75 M500.2,427.75L509.2,438.75" fill="none" stroke="#245963" stroke-width="8" stroke-linecap="round"/><circle cx="453.2" cy="414.75" r="21" fill="#245963" stroke="#fffaf0" stroke-width="3"/><text x="453.2" y="421.8" font-size="19" fill="#fffaf0" text-anchor="middle" font-weight="700">Ju</text></g><text x="36.0" y="643.0" font-size="16" fill="#2b2620" text-anchor="start" >位置・舞台寸法は検討案。破線の矢印＝移動案／短い線＝向き。</text><text x="1064.0" y="643.0" font-size="17" fill="#2b2620" text-anchor="end" >舞台上 10名</text></g></svg>