<svg xmlns="http://www.w3.org/2000/svg" width="1100" height="680" viewBox="0 0 1100 680" role="img" aria-labelledby="title description" data-frame="RJ-COND-04-C-01" data-view="iso"><title id="title">一人で薬を飲む／斜め図</title><desc id="description">ジュリエットが一人で薬を飲む。ここから仮死状態になり、死の知らせだけが広がる。 位置は検討案。左は客席から見た左、下側は客席。</desc><rect width="1100" height="680" fill="#fffaf0"/><defs><clipPath id="floor"><polygon points="160.0,240.0 860.0,95.0 1020.0,380.0 320.0,525.0"/></clipPath><marker id="arrow" viewBox="0 0 10 10" refX="8" refY="5" markerWidth="8" markerHeight="8" orient="auto-start-reverse"><path d="M0 1L9 5L0 9" fill="none" stroke="#75664f" stroke-width="1.5"/></marker></defs><g font-family="Hiragino Kaku Gothic ProN,Yu Gothic,sans-serif"><text x="36.0" y="40.0" font-size="18" fill="#2b2620" text-anchor="start" >斜め図 · 配置検討</text><polygon points="160.0,240.0 320.0,525.0 320.0,549.0 160.0,264.0" fill="#c5b79c" stroke="#75664f" stroke-width="2"/><polygon points="320.0,525.0 1020.0,380.0 1020.0,404.0 320.0,549.0" fill="#c5b79c" stroke="#75664f" stroke-width="2"/><polygon points="160.0,240.0 860.0,95.0 1020.0,380.0 320.0,525.0" fill="#ddd2bc" stroke="#75664f" stroke-width="2"/><g clip-path="url(#floor)"><polygon points="962.8,305.9 965.2,311.4 966.6,317.0 966.8,322.7 965.9,328.4 963.9,334.2 960.8,339.9 956.7,345.6 951.5,351.0 945.4,356.3 938.3,361.3 930.4,366.0 921.7,370.3 912.4,374.2 902.5,377.7 892.0,380.8 881.2,383.3 870.1,385.3 858.8,386.8 847.4,387.7 836.0,388.1 824.8,387.8 813.9,387.1 803.2,385.7 793.1,383.8 783.5,381.4 774.6,378.5 766.4,375.1 759.0,371.3 752.4,367.1 746.9,362.5 742.3,357.5 738.8,352.4 736.4,346.9 735.0,341.3 734.8,335.6 735.7,329.9 737.7,324.1 740.8,318.4 744.9,312.7 750.1,307.3 756.2,302.0 763.3,297.0 771.2,292.3 779.9,288.0 789.2,284.1 799.1,280.6 809.6,277.5 820.4,275.0 831.5,273.0 842.8,271.5 854.2,270.6 865.6,270.2 876.8,270.5 887.7,271.2 898.4,272.6 908.5,274.5 918.1,276.9 927.0,279.8 935.2,283.2 942.6,287.0 949.2,291.2 954.7,295.8 959.3,300.8" fill="#fffaf0" opacity=".7"/></g><path d="M320,525 L1020,380" stroke="#75664f" stroke-width="4"/><text x="713.2" y="537.5" font-size="23" fill="#2b2620" text-anchor="middle" font-weight="700">客席側</text><text x="60.0" y="588.0" font-size="16" fill="#2b2620" text-anchor="start" >客席から見て左</text><text x="1040.0" y="588.0" font-size="16" fill="#2b2620" text-anchor="end" >客席から見て右</text><text x="510.0" y="111.5" font-size="17" fill="#2b2620" text-anchor="middle" >舞台奥</text><g class="person" data-performer="JULIET" data-character="JULIET" data-state="小瓶" data-u="0.82" data-v="0.73" data-pose="kneel"><title>ジュリエット／小瓶</title><ellipse cx="850.8" cy="332.15" rx="20" ry="7" fill="#2b2620" opacity=".14"/><path d="M850.8,314.15L850.8,320.15 M850.8,320.15L841.8,330.15 M850.8,320.15L859.8,330.15 M837.8,316.15L850.8,308.15L863.8,316.15" stroke="#245963" stroke-width="8" fill="none" stroke-linecap="round"/><circle cx="850.8" cy="295.15" r="21" fill="#245963" stroke="#fffaf0" stroke-width="3"/><text x="850.8" y="302.1" font-size="19" fill="#fffaf0" text-anchor="middle" font-weight="700">Ju</text><path class="facing" d="M855.6953475670764,337.8698378538548l5.874417080491671,10.46380542462577" stroke="#245963" stroke-width="3" stroke-linecap="round"/></g><text x="36.0" y="643.0" font-size="16" fill="#2b2620" text-anchor="start" >位置・舞台寸法は検討案。破線の矢印＝移動案／短い線＝向き。</text><text x="1064.0" y="643.0" font-size="17" fill="#2b2620" text-anchor="end" >舞台上 1名</text></g></svg>